<svg xmlns="http://www.w3.org/2000/svg" xmlns:xlink="http://www.w3.org/1999/xlink" width="220" height="300">
  <defs>
    <path id="a" d="M1 0h188l31 31v268a1 1 0 0 1-1 1H1a1 1 0 0 1-1-1V1a1 1 0 0 1 1-1z"/>
    <path id="b" d="M1 0h188l31 31v268a1 1 0 0 1-1 1H1a1 1 0 0 1-1-1V1a1 1 0 0 1 1-1z"/>
  </defs>
  <g fill="none" fill-rule="evenodd">
    <use fill="#F9F8FF" xlink:href="#a"/>
    <path stroke="#312F57" d="M219.5 31.207L188.793.5H1a.5.5 0 0 0-.5.5v298a.5.5 0 0 0 .5.5h218a.5.5 0 0 0 .5-.5V31.207z"/>
    <use fill="#F9F8FF" xlink:href="#b"/>
    <path stroke="#312F57" d="M219.5 31.207L188.793.5H1a.5.5 0 0 0-.5.5v298a.5.5 0 0 0 .5.5h218a.5.5 0 0 0 .5-.5V31.207z"/>
    <path fill="#D0CFE6" stroke="#312F57" stroke-width=".7" d="M189 1v31h31"/>
    <g fill="#535266" transform="translate(54 50)">
      <circle cx="8" cy="8" r="8"/>
      <circle cx="104" cy="8" r="8"/>
    </g>
    <path stroke="#535266" stroke-linecap="round" stroke-width="3" d="M89.082 83.283C95.222 79.76 101.965 78 109.312 78c7.347 0 14.095 1.76 20.243 5.283"/>
    <g transform="rotate(-22 539.503 -56.566)">
      <rect width="90" height="46" fill="#EFEFF7" rx="3"/>
      <text fill="#5A50C7" font-family="Rubik-Regular, Rubik" font-size="34" letter-spacing="1">
        <tspan x="7" y="35">404!</tspan>
      </text>
    </g>
  </g>
  <image xlink:href="sad-404-page.svg" src="sad-404-page.png" width="96" height="96" />
</svg>
